<svg width="302" height="35" viewBox="0 0 302 35" fill="none" xmlns="http://www.w3.org/2000/svg">
<path d="M0.36 1.4H20.808L25.704 6.344V17.768L20.76 22.76H5.928V35H0.36V1.4ZM18.312 18.056L20.232 16.136V8.024L18.312 6.104H5.928V18.056H18.312ZM29.0306 30.248V15.896L33.7826 11.096H46.7906L51.6386 15.896V24.824H34.4546V28.664L36.2786 30.488H44.4866L46.2146 28.712V27.272H51.5906V30.344L46.9346 35H33.7346L29.0306 30.248ZM46.2146 20.84V17.528L44.3426 15.608H36.3266L34.4546 17.528V20.84H46.2146ZM56.6869 30.2V15.896L61.4389 11.096H70.8469L74.0629 13.88V0.727998H79.4869V35H74.3509V31.064L70.4149 35H61.4389L56.6869 30.2ZM69.7909 30.344L74.0629 26.024V19.016L70.3669 15.752H64.1269L62.1109 17.768V28.328L64.1269 30.344H69.7909ZM85.7138 11.096H90.7538V15.176L94.7378 11.096H101.362V15.752H95.9378L91.1378 20.648V35H85.7138V11.096ZM103.281 30.2V15.896L108.033 11.096H121.281L126.081 15.896V30.2L121.281 35H108.033L103.281 30.2ZM118.737 30.44L120.657 28.52V17.576L118.737 15.656H110.625L108.705 17.576V28.52L110.625 30.44H118.737ZM144.688 1.4H150.256V30.248H167.152V35H144.688V1.4ZM170.271 30.152V11.096H175.695V28.472L177.567 30.344H181.743L186.831 25.256V11.096H192.255V35H187.215V30.584L182.751 35H175.119L170.271 30.152ZM198.015 30.248V15.848L202.719 11.096H215.343L220.095 15.896V19.832H214.671V17.624L212.751 15.752H205.359L203.439 17.624V28.472L205.359 30.344H212.751L214.671 28.472V26.264H220.095V30.2L215.343 35H202.719L198.015 30.248ZM224.406 30.248V15.896L229.158 11.096H242.166L247.014 15.896V24.824H229.83V28.664L231.654 30.488H239.862L241.59 28.712V27.272H246.966V30.344L242.31 35H229.11L224.406 30.248ZM241.59 20.84V17.528L239.718 15.608H231.702L229.83 17.528V20.84H241.59ZM252.542 11.096H257.582V15.464L261.95 11.096H269.534L274.574 16.136V35H269.15V17.624L267.278 15.752H262.958L257.966 20.792V35H252.542V11.096ZM279.853 30.728V25.064L284.125 20.84H296.461V17.288L294.685 15.512H287.149L285.373 17.288V18.824H280.045V16.04L284.941 11.096H296.893L301.789 16.04V35H296.845V31.304L293.005 35H284.125L279.853 30.728ZM292.477 30.728L296.461 26.888V24.872H286.717L285.181 26.36V29.288L286.621 30.728H292.477Z" fill="url(#paint0_linear_153_230)"/>
<defs>
<linearGradient id="paint0_linear_153_230" x1="-2.25157" y1="-12.625" x2="228.807" y2="175.539" gradientUnits="userSpaceOnUse">
<stop stop-color="#BC3CD8"/>
<stop offset="1" stop-color="#C54B8C"/>
</linearGradient>
</defs>
</svg>
